<?xml version="1.0" encoding="UTF-8" standalone="no"?>
<!DOCTYPE svg PUBLIC "-//W3C//DTD SVG 1.1//EN"
 "http://www.w3.org/Graphics/SVG/1.1/DTD/svg11.dtd">
<!-- Generated by graphviz version 2.38.0 (20140413.2041)
 -->
<!-- Title: controllers_diagram Pages: 1 -->
<svg width="416pt" height="545pt"
 viewBox="0.00 0.00 416.00 545.00" xmlns="http://www.w3.org/2000/svg" xmlns:xlink="http://www.w3.org/1999/xlink">
<g id="graph0" class="graph" transform="scale(1 1) rotate(0) translate(89 354)">
<title>controllers_diagram</title>
<polygon fill="none" stroke="none" points="-89,191 -89,-354 327,-354 327,191 -89,191"/>
<!-- _diagram_info -->
<g id="node1" class="node"><title>_diagram_info</title>
<text text-anchor="start" x="76" y="123.4" font-family="Times,serif" font-size="13.00">Controllers diagram</text>
<text text-anchor="start" x="76" y="137.4" font-family="Times,serif" font-size="13.00">Date: Oct 25 2017 &#45; 12:49</text>
<text text-anchor="start" x="76" y="151.4" font-family="Times,serif" font-size="13.00">Migration version: 20171025154832</text>
<text text-anchor="start" x="76" y="165.4" font-family="Times,serif" font-size="13.00">Generated by RailRoady 1.5.3</text>
<text text-anchor="start" x="76" y="179.4" font-family="Times,serif" font-size="13.00">http://railroady.prestonlee.com</text>
</g>
<!-- NotesController -->
<g id="node2" class="node"><title>NotesController</title>
<path fill="none" stroke="black" d="M-56,118.5C-56,118.5 24,118.5 24,118.5 30,118.5 36,112.5 36,106.5 36,106.5 36,-82.5 36,-82.5 36,-88.5 30,-94.5 24,-94.5 24,-94.5 -56,-94.5 -56,-94.5 -62,-94.5 -68,-88.5 -68,-82.5 -68,-82.5 -68,106.5 -68,106.5 -68,112.5 -62,118.5 -56,118.5"/>
<text text-anchor="middle" x="-16" y="-79.3" font-family="Times,serif" font-size="14.00">NotesController</text>
<polyline fill="none" stroke="black" points="-68,-71.5 36,-71.5 "/>
<text text-anchor="start" x="-60" y="-56.3" font-family="Times,serif" font-size="14.00">create</text>
<text text-anchor="start" x="-60" y="-41.3" font-family="Times,serif" font-size="14.00">destroy</text>
<text text-anchor="start" x="-60" y="-26.3" font-family="Times,serif" font-size="14.00">edit</text>
<text text-anchor="start" x="-60" y="-11.3" font-family="Times,serif" font-size="14.00">index</text>
<text text-anchor="start" x="-60" y="3.7" font-family="Times,serif" font-size="14.00">new</text>
<text text-anchor="start" x="-60" y="18.7" font-family="Times,serif" font-size="14.00">show</text>
<text text-anchor="start" x="-60" y="33.7" font-family="Times,serif" font-size="14.00">update</text>
<polyline fill="none" stroke="black" points="-68,41.5 36,41.5 "/>
<polyline fill="none" stroke="black" points="-68,65.5 36,65.5 "/>
<text text-anchor="start" x="-60" y="80.7" font-family="Times,serif" font-size="14.00">_layout</text>
<text text-anchor="start" x="-60" y="95.7" font-family="Times,serif" font-size="14.00">note_params</text>
<text text-anchor="start" x="-60" y="110.7" font-family="Times,serif" font-size="14.00">set_note</text>
</g>
<!-- PeopleController -->
<g id="node3" class="node"><title>PeopleController</title>
<path fill="none" stroke="black" d="M80.5,67.5C80.5,67.5 165.5,67.5 165.5,67.5 171.5,67.5 177.5,61.5 177.5,55.5 177.5,55.5 177.5,-133.5 177.5,-133.5 177.5,-139.5 171.5,-145.5 165.5,-145.5 165.5,-145.5 80.5,-145.5 80.5,-145.5 74.5,-145.5 68.5,-139.5 68.5,-133.5 68.5,-133.5 68.5,55.5 68.5,55.5 68.5,61.5 74.5,67.5 80.5,67.5"/>
<text text-anchor="middle" x="123" y="-130.3" font-family="Times,serif" font-size="14.00">PeopleController</text>
<polyline fill="none" stroke="black" points="68.5,-122.5 177.5,-122.5 "/>
<text text-anchor="start" x="76.5" y="-107.3" font-family="Times,serif" font-size="14.00">create</text>
<text text-anchor="start" x="76.5" y="-92.3" font-family="Times,serif" font-size="14.00">destroy</text>
<text text-anchor="start" x="76.5" y="-77.3" font-family="Times,serif" font-size="14.00">edit</text>
<text text-anchor="start" x="76.5" y="-62.3" font-family="Times,serif" font-size="14.00">index</text>
<text text-anchor="start" x="76.5" y="-47.3" font-family="Times,serif" font-size="14.00">new</text>
<text text-anchor="start" x="76.5" y="-32.3" font-family="Times,serif" font-size="14.00">show</text>
<text text-anchor="start" x="76.5" y="-17.3" font-family="Times,serif" font-size="14.00">update</text>
<polyline fill="none" stroke="black" points="68.5,-9.5 177.5,-9.5 "/>
<polyline fill="none" stroke="black" points="68.5,14.5 177.5,14.5 "/>
<text text-anchor="start" x="76.5" y="29.7" font-family="Times,serif" font-size="14.00">_layout</text>
<text text-anchor="start" x="76.5" y="44.7" font-family="Times,serif" font-size="14.00">person_params</text>
<text text-anchor="start" x="76.5" y="59.7" font-family="Times,serif" font-size="14.00">set_person</text>
</g>
<!-- GroupsController -->
<g id="node4" class="node"><title>GroupsController</title>
<path fill="none" stroke="black" d="M-73,-136.5C-73,-136.5 15,-136.5 15,-136.5 21,-136.5 27,-142.5 27,-148.5 27,-148.5 27,-337.5 27,-337.5 27,-343.5 21,-349.5 15,-349.5 15,-349.5 -73,-349.5 -73,-349.5 -79,-349.5 -85,-343.5 -85,-337.5 -85,-337.5 -85,-148.5 -85,-148.5 -85,-142.5 -79,-136.5 -73,-136.5"/>
<text text-anchor="middle" x="-29" y="-334.3" font-family="Times,serif" font-size="14.00">GroupsController</text>
<polyline fill="none" stroke="black" points="-85,-326.5 27,-326.5 "/>
<text text-anchor="start" x="-77" y="-311.3" font-family="Times,serif" font-size="14.00">create</text>
<text text-anchor="start" x="-77" y="-296.3" font-family="Times,serif" font-size="14.00">destroy</text>
<text text-anchor="start" x="-77" y="-281.3" font-family="Times,serif" font-size="14.00">edit</text>
<text text-anchor="start" x="-77" y="-266.3" font-family="Times,serif" font-size="14.00">index</text>
<text text-anchor="start" x="-77" y="-251.3" font-family="Times,serif" font-size="14.00">new</text>
<text text-anchor="start" x="-77" y="-236.3" font-family="Times,serif" font-size="14.00">show</text>
<text text-anchor="start" x="-77" y="-221.3" font-family="Times,serif" font-size="14.00">update</text>
<polyline fill="none" stroke="black" points="-85,-213.5 27,-213.5 "/>
<polyline fill="none" stroke="black" points="-85,-189.5 27,-189.5 "/>
<text text-anchor="start" x="-77" y="-174.3" font-family="Times,serif" font-size="14.00">_layout</text>
<text text-anchor="start" x="-77" y="-159.3" font-family="Times,serif" font-size="14.00">group_params</text>
<text text-anchor="start" x="-77" y="-144.3" font-family="Times,serif" font-size="14.00">set_group</text>
</g>
<!-- ApplicationController -->
<g id="node5" class="node"><title>ApplicationController</title>
<path fill="none" stroke="black" d="M199,-188C199,-188 311,-188 311,-188 317,-188 323,-194 323,-200 323,-200 323,-270 323,-270 323,-276 317,-282 311,-282 311,-282 199,-282 199,-282 193,-282 187,-276 187,-270 187,-270 187,-200 187,-200 187,-194 193,-188 199,-188"/>
<text text-anchor="middle" x="255" y="-266.8" font-family="Times,serif" font-size="14.00">ApplicationController</text>
<polyline fill="none" stroke="black" points="187,-259 323,-259 "/>
<polyline fill="none" stroke="black" points="187,-235 323,-235 "/>
<polyline fill="none" stroke="black" points="187,-211 323,-211 "/>
<text text-anchor="start" x="195" y="-195.8" font-family="Times,serif" font-size="14.00">_layout</text>
</g>
</g>
</svg>
