<?xml version="1.0" encoding="UTF-8" standalone="no"?>
<!DOCTYPE svg PUBLIC "-//W3C//DTD SVG 1.1//EN"
 "http://www.w3.org/Graphics/SVG/1.1/DTD/svg11.dtd">
<!-- Generated by graphviz version 2.38.0 (20140413.2041)
 -->
<!-- Title: models_diagram Pages: 1 -->
<svg width="656pt" height="386pt"
 viewBox="0.00 0.00 656.34 386.00" xmlns="http://www.w3.org/2000/svg" xmlns:xlink="http://www.w3.org/1999/xlink">
<g id="graph0" class="graph" transform="scale(1 1) rotate(0) translate(4 382)">
<title>models_diagram</title>
<polygon fill="none" stroke="none" points="-4,4 -4,-382 652.343,-382 652.343,4 -4,4"/>
<!-- _diagram_info -->
<g id="node1" class="node"><title>_diagram_info</title>
<text text-anchor="start" x="8" y="-356.6" font-family="Times,serif" font-size="13.00">Models diagram</text>
<text text-anchor="start" x="8" y="-342.6" font-family="Times,serif" font-size="13.00">Date: Oct 25 2017 &#45; 12:49</text>
<text text-anchor="start" x="8" y="-328.6" font-family="Times,serif" font-size="13.00">Migration version: 20171025154832</text>
<text text-anchor="start" x="8" y="-314.6" font-family="Times,serif" font-size="13.00">Generated by RailRoady 1.5.3</text>
<text text-anchor="start" x="8" y="-300.6" font-family="Times,serif" font-size="13.00">http://railroady.prestonlee.com</text>
</g>
<!-- Group -->
<g id="node2" class="node"><title>Group</title>
<path fill="none" stroke="black" d="M244,-286.5C244,-286.5 464,-286.5 464,-286.5 470,-286.5 476,-292.5 476,-298.5 476,-298.5 476,-365.5 476,-365.5 476,-371.5 470,-377.5 464,-377.5 464,-377.5 244,-377.5 244,-377.5 238,-377.5 232,-371.5 232,-365.5 232,-365.5 232,-298.5 232,-298.5 232,-292.5 238,-286.5 244,-286.5"/>
<text text-anchor="middle" x="354" y="-362.3" font-family="Times,serif" font-size="14.00">Group</text>
<polyline fill="none" stroke="black" points="232,-354.5 476,-354.5 "/>
<text text-anchor="start" x="240" y="-339.3" font-family="Times,serif" font-size="14.00">id :integer</text>
<text text-anchor="start" x="240" y="-324.3" font-family="Times,serif" font-size="14.00">name :character varying</text>
<text text-anchor="start" x="240" y="-309.3" font-family="Times,serif" font-size="14.00">created_at :timestamp without time zone</text>
<text text-anchor="start" x="240" y="-294.3" font-family="Times,serif" font-size="14.00">updated_at :timestamp without time zone</text>
</g>
<!-- Person -->
<g id="node5" class="node"><title>Person</title>
<path fill="none" stroke="black" d="M244,-143.5C244,-143.5 464,-143.5 464,-143.5 470,-143.5 476,-149.5 476,-155.5 476,-155.5 476,-237.5 476,-237.5 476,-243.5 470,-249.5 464,-249.5 464,-249.5 244,-249.5 244,-249.5 238,-249.5 232,-243.5 232,-237.5 232,-237.5 232,-155.5 232,-155.5 232,-149.5 238,-143.5 244,-143.5"/>
<text text-anchor="middle" x="354" y="-234.3" font-family="Times,serif" font-size="14.00">Person</text>
<polyline fill="none" stroke="black" points="232,-226.5 476,-226.5 "/>
<text text-anchor="start" x="240" y="-211.3" font-family="Times,serif" font-size="14.00">id :integer</text>
<text text-anchor="start" x="240" y="-196.3" font-family="Times,serif" font-size="14.00">name :character varying</text>
<text text-anchor="start" x="240" y="-181.3" font-family="Times,serif" font-size="14.00">group_id :integer</text>
<text text-anchor="start" x="240" y="-166.3" font-family="Times,serif" font-size="14.00">created_at :timestamp without time zone</text>
<text text-anchor="start" x="240" y="-151.3" font-family="Times,serif" font-size="14.00">updated_at :timestamp without time zone</text>
</g>
<!-- Group&#45;&gt;Person -->
<g id="edge1" class="edge"><title>Group&#45;&gt;Person</title>
<path fill="none" stroke="#7cafed" d="M354,-278.111C354,-272.148 354,-266.03 354,-259.96"/>
<ellipse fill="none" stroke="#7cafed" cx="354" cy="-282.175" rx="4" ry="4"/>
<polygon fill="#7cafed" stroke="#7cafed" points="354,-259.824 358.5,-249.824 354,-254.824 354,-249.824 354,-249.824 354,-249.824 354,-254.824 349.5,-249.824 354,-259.824 354,-259.824"/>
</g>
<!-- Note -->
<g id="node3" class="node"><title>Note</title>
<path fill="none" stroke="black" d="M244,-0.5C244,-0.5 464,-0.5 464,-0.5 470,-0.5 476,-6.5 476,-12.5 476,-12.5 476,-94.5 476,-94.5 476,-100.5 470,-106.5 464,-106.5 464,-106.5 244,-106.5 244,-106.5 238,-106.5 232,-100.5 232,-94.5 232,-94.5 232,-12.5 232,-12.5 232,-6.5 238,-0.5 244,-0.5"/>
<text text-anchor="middle" x="354" y="-91.3" font-family="Times,serif" font-size="14.00">Note</text>
<polyline fill="none" stroke="black" points="232,-83.5 476,-83.5 "/>
<text text-anchor="start" x="240" y="-68.3" font-family="Times,serif" font-size="14.00">id :integer</text>
<text text-anchor="start" x="240" y="-53.3" font-family="Times,serif" font-size="14.00">content :text</text>
<text text-anchor="start" x="240" y="-38.3" font-family="Times,serif" font-size="14.00">person_id :integer</text>
<text text-anchor="start" x="240" y="-23.3" font-family="Times,serif" font-size="14.00">created_at :timestamp without time zone</text>
<text text-anchor="start" x="240" y="-8.3" font-family="Times,serif" font-size="14.00">updated_at :timestamp without time zone</text>
</g>
<!-- ApplicationRecord -->
<g id="node4" class="node"><title>ApplicationRecord</title>
<ellipse fill="none" stroke="black" cx="571" cy="-332" rx="77.1866" ry="18"/>
<text text-anchor="middle" x="571" y="-328.3" font-family="Times,serif" font-size="14.00">ApplicationRecord</text>
</g>
<!-- Person&#45;&gt;Note -->
<g id="edge2" class="edge"><title>Person&#45;&gt;Note</title>
<path fill="none" stroke="#e8769c" d="M354,-135.194C354,-129.154 354,-123.013 354,-116.952"/>
<ellipse fill="none" stroke="#e8769c" cx="354" cy="-139.397" rx="4" ry="4"/>
<polygon fill="#e8769c" stroke="#e8769c" points="354,-116.859 358.5,-106.859 354,-111.859 354,-106.859 354,-106.859 354,-106.859 354,-111.859 349.5,-106.859 354,-116.859 354,-116.859"/>
</g>
</g>
</svg>
