<?xml version="1.0" encoding="UTF-8" standalone="no"?>
<!DOCTYPE svg PUBLIC "-//W3C//DTD SVG 1.1//EN"
 "http://www.w3.org/Graphics/SVG/1.1/DTD/svg11.dtd">
<!-- Generated by graphviz version 2.38.0 (20140413.2041)
 -->
<!-- Title: models_diagram Pages: 1 -->
<svg width="478pt" height="230pt"
 viewBox="0.00 0.00 478.34 230.00" xmlns="http://www.w3.org/2000/svg" xmlns:xlink="http://www.w3.org/1999/xlink">
<g id="graph0" class="graph" transform="scale(1 1) rotate(0) translate(4 226)">
<title>models_diagram</title>
<polygon fill="none" stroke="none" points="-4,4 -4,-226 474.343,-226 474.343,4 -4,4"/>
<!-- _diagram_info -->
<g id="node1" class="node"><title>_diagram_info</title>
<text text-anchor="start" x="8" y="-207.6" font-family="Times,serif" font-size="13.00">Models diagram</text>
<text text-anchor="start" x="8" y="-193.6" font-family="Times,serif" font-size="13.00">Date: Oct 25 2017 &#45; 12:49</text>
<text text-anchor="start" x="8" y="-179.6" font-family="Times,serif" font-size="13.00">Migration version: 20171025154832</text>
<text text-anchor="start" x="8" y="-165.6" font-family="Times,serif" font-size="13.00">Generated by RailRoady 1.5.3</text>
<text text-anchor="start" x="8" y="-151.6" font-family="Times,serif" font-size="13.00">http://railroady.prestonlee.com</text>
</g>
<!-- Group -->
<g id="node2" class="node"><title>Group</title>
<ellipse fill="none" stroke="black" cx="265" cy="-183" rx="33.2948" ry="18"/>
<text text-anchor="middle" x="265" y="-179.3" font-family="Times,serif" font-size="14.00">Group</text>
</g>
<!-- Person -->
<g id="node5" class="node"><title>Person</title>
<ellipse fill="none" stroke="black" cx="265" cy="-90" rx="34.394" ry="18"/>
<text text-anchor="middle" x="265" y="-86.3" font-family="Times,serif" font-size="14.00">Person</text>
</g>
<!-- Group&#45;&gt;Person -->
<g id="edge1" class="edge"><title>Group&#45;&gt;Person</title>
<path fill="none" stroke="#2b811e" d="M265,-156.729C265,-144.725 265,-130.362 265,-118.129"/>
<ellipse fill="none" stroke="#2b811e" cx="265" cy="-160.884" rx="4" ry="4"/>
<polygon fill="#2b811e" stroke="#2b811e" points="265,-118.04 269.5,-108.04 265,-113.04 265,-108.04 265,-108.04 265,-108.04 265,-113.04 260.5,-108.04 265,-118.04 265,-118.04"/>
</g>
<!-- Note -->
<g id="node3" class="node"><title>Note</title>
<ellipse fill="none" stroke="black" cx="265" cy="-18" rx="27.8951" ry="18"/>
<text text-anchor="middle" x="265" y="-14.3" font-family="Times,serif" font-size="14.00">Note</text>
</g>
<!-- ApplicationRecord -->
<g id="node4" class="node"><title>ApplicationRecord</title>
<ellipse fill="none" stroke="black" cx="393" cy="-183" rx="77.1866" ry="18"/>
<text text-anchor="middle" x="393" y="-179.3" font-family="Times,serif" font-size="14.00">ApplicationRecord</text>
</g>
<!-- Person&#45;&gt;Note -->
<g id="edge2" class="edge"><title>Person&#45;&gt;Note</title>
<path fill="none" stroke="#8944a7" d="M265,-63.6398C265,-58.0629 265,-52.1319 265,-46.4761"/>
<ellipse fill="none" stroke="#8944a7" cx="265" cy="-67.6966" rx="4" ry="4"/>
<polygon fill="#8944a7" stroke="#8944a7" points="265,-46.1043 269.5,-36.1043 265,-41.1043 265,-36.1043 265,-36.1043 265,-36.1043 265,-41.1043 260.5,-36.1044 265,-46.1043 265,-46.1043"/>
</g>
</g>
</svg>
